G04 #@! TF.GenerationSoftware,KiCad,Pcbnew,5.0.2+dfsg1-1~bpo9+1*
G04 #@! TF.CreationDate,2022-11-14T20:46:36+01:00*
G04 #@! TF.ProjectId,breadpcb1,62726561-6470-4636-9231-2e6b69636164,rev?*
G04 #@! TF.SameCoordinates,Original*
G04 #@! TF.FileFunction,Legend,Bot*
G04 #@! TF.FilePolarity,Positive*
%FSLAX46Y46*%
G04 Gerber Fmt 4.6, Leading zero omitted, Abs format (unit mm)*
G04 Created by KiCad (PCBNEW 5.0.2+dfsg1-1~bpo9+1) date Mo 14 Nov 2022 20:46:36 CET*
%MOMM*%
%LPD*%
G01*
G04 APERTURE LIST*
%ADD10C,0.300000*%
G04 APERTURE END LIST*
D10*
X164239523Y-81593809D02*
X163858571Y-81593809D01*
X163668095Y-81670000D01*
X163477619Y-81822380D01*
X163382380Y-82127142D01*
X163382380Y-82660476D01*
X163477619Y-82965238D01*
X163668095Y-83117619D01*
X163858571Y-83193809D01*
X164239523Y-83193809D01*
X164430000Y-83117619D01*
X164620476Y-82965238D01*
X164715714Y-82660476D01*
X164715714Y-82127142D01*
X164620476Y-81822380D01*
X164430000Y-81670000D01*
X164239523Y-81593809D01*
X162525238Y-82127142D02*
X162525238Y-83727142D01*
X162525238Y-82203333D02*
X162334761Y-82127142D01*
X161953809Y-82127142D01*
X161763333Y-82203333D01*
X161668095Y-82279523D01*
X161572857Y-82431904D01*
X161572857Y-82889047D01*
X161668095Y-83041428D01*
X161763333Y-83117619D01*
X161953809Y-83193809D01*
X162334761Y-83193809D01*
X162525238Y-83117619D01*
X159953809Y-83117619D02*
X160144285Y-83193809D01*
X160525238Y-83193809D01*
X160715714Y-83117619D01*
X160810952Y-82965238D01*
X160810952Y-82355714D01*
X160715714Y-82203333D01*
X160525238Y-82127142D01*
X160144285Y-82127142D01*
X159953809Y-82203333D01*
X159858571Y-82355714D01*
X159858571Y-82508095D01*
X160810952Y-82660476D01*
X159001428Y-82127142D02*
X159001428Y-83193809D01*
X159001428Y-82279523D02*
X158906190Y-82203333D01*
X158715714Y-82127142D01*
X158430000Y-82127142D01*
X158239523Y-82203333D01*
X158144285Y-82355714D01*
X158144285Y-83193809D01*
X155763333Y-83117619D02*
X155477619Y-83193809D01*
X155001428Y-83193809D01*
X154810952Y-83117619D01*
X154715714Y-83041428D01*
X154620476Y-82889047D01*
X154620476Y-82736666D01*
X154715714Y-82584285D01*
X154810952Y-82508095D01*
X155001428Y-82431904D01*
X155382380Y-82355714D01*
X155572857Y-82279523D01*
X155668095Y-82203333D01*
X155763333Y-82050952D01*
X155763333Y-81898571D01*
X155668095Y-81746190D01*
X155572857Y-81670000D01*
X155382380Y-81593809D01*
X154906190Y-81593809D01*
X154620476Y-81670000D01*
X153477619Y-83193809D02*
X153668095Y-83117619D01*
X153763333Y-83041428D01*
X153858571Y-82889047D01*
X153858571Y-82431904D01*
X153763333Y-82279523D01*
X153668095Y-82203333D01*
X153477619Y-82127142D01*
X153191904Y-82127142D01*
X153001428Y-82203333D01*
X152906190Y-82279523D01*
X152810952Y-82431904D01*
X152810952Y-82889047D01*
X152906190Y-83041428D01*
X153001428Y-83117619D01*
X153191904Y-83193809D01*
X153477619Y-83193809D01*
X151096666Y-82127142D02*
X151096666Y-83193809D01*
X151953809Y-82127142D02*
X151953809Y-82965238D01*
X151858571Y-83117619D01*
X151668095Y-83193809D01*
X151382380Y-83193809D01*
X151191904Y-83117619D01*
X151096666Y-83041428D01*
X150144285Y-83193809D02*
X150144285Y-82127142D01*
X150144285Y-82431904D02*
X150049047Y-82279523D01*
X149953809Y-82203333D01*
X149763333Y-82127142D01*
X149572857Y-82127142D01*
X148049047Y-83117619D02*
X148239523Y-83193809D01*
X148620476Y-83193809D01*
X148810952Y-83117619D01*
X148906190Y-83041428D01*
X149001428Y-82889047D01*
X149001428Y-82431904D01*
X148906190Y-82279523D01*
X148810952Y-82203333D01*
X148620476Y-82127142D01*
X148239523Y-82127142D01*
X148049047Y-82203333D01*
X146430000Y-83117619D02*
X146620476Y-83193809D01*
X147001428Y-83193809D01*
X147191904Y-83117619D01*
X147287142Y-82965238D01*
X147287142Y-82355714D01*
X147191904Y-82203333D01*
X147001428Y-82127142D01*
X146620476Y-82127142D01*
X146430000Y-82203333D01*
X146334761Y-82355714D01*
X146334761Y-82508095D01*
X147287142Y-82660476D01*
X143953809Y-82355714D02*
X143287142Y-82355714D01*
X143001428Y-83193809D02*
X143953809Y-83193809D01*
X143953809Y-81593809D01*
X143001428Y-81593809D01*
X141287142Y-83117619D02*
X141477619Y-83193809D01*
X141858571Y-83193809D01*
X142049047Y-83117619D01*
X142144285Y-83041428D01*
X142239523Y-82889047D01*
X142239523Y-82431904D01*
X142144285Y-82279523D01*
X142049047Y-82203333D01*
X141858571Y-82127142D01*
X141477619Y-82127142D01*
X141287142Y-82203333D01*
X140144285Y-83193809D02*
X140334761Y-83117619D01*
X140430000Y-83041428D01*
X140525238Y-82889047D01*
X140525238Y-82431904D01*
X140430000Y-82279523D01*
X140334761Y-82203333D01*
X140144285Y-82127142D01*
X139858571Y-82127142D01*
X139668095Y-82203333D01*
X139572857Y-82279523D01*
X139477619Y-82431904D01*
X139477619Y-82889047D01*
X139572857Y-83041428D01*
X139668095Y-83117619D01*
X139858571Y-83193809D01*
X140144285Y-83193809D01*
X138334761Y-83193809D02*
X138525238Y-83117619D01*
X138620476Y-82965238D01*
X138620476Y-81593809D01*
X137287142Y-83193809D02*
X137477619Y-83117619D01*
X137572857Y-83041428D01*
X137668095Y-82889047D01*
X137668095Y-82431904D01*
X137572857Y-82279523D01*
X137477619Y-82203333D01*
X137287142Y-82127142D01*
X137001428Y-82127142D01*
X136810952Y-82203333D01*
X136715714Y-82279523D01*
X136620476Y-82431904D01*
X136620476Y-82889047D01*
X136715714Y-83041428D01*
X136810952Y-83117619D01*
X137001428Y-83193809D01*
X137287142Y-83193809D01*
X134906190Y-82127142D02*
X134906190Y-83422380D01*
X135001428Y-83574761D01*
X135096666Y-83650952D01*
X135287142Y-83727142D01*
X135572857Y-83727142D01*
X135763333Y-83650952D01*
X134906190Y-83117619D02*
X135096666Y-83193809D01*
X135477619Y-83193809D01*
X135668095Y-83117619D01*
X135763333Y-83041428D01*
X135858571Y-82889047D01*
X135858571Y-82431904D01*
X135763333Y-82279523D01*
X135668095Y-82203333D01*
X135477619Y-82127142D01*
X135096666Y-82127142D01*
X134906190Y-82203333D01*
X134144285Y-82127142D02*
X133668095Y-83193809D01*
X133191904Y-82127142D02*
X133668095Y-83193809D01*
X133858571Y-83574761D01*
X133953809Y-83650952D01*
X134144285Y-83727142D01*
X129858571Y-81670000D02*
X130049047Y-81593809D01*
X130334761Y-81593809D01*
X130620476Y-81670000D01*
X130810952Y-81822380D01*
X130906190Y-81974761D01*
X131001428Y-82279523D01*
X131001428Y-82508095D01*
X130906190Y-82812857D01*
X130810952Y-82965238D01*
X130620476Y-83117619D01*
X130334761Y-83193809D01*
X130144285Y-83193809D01*
X129858571Y-83117619D01*
X129763333Y-83041428D01*
X129763333Y-82508095D01*
X130144285Y-82508095D01*
X128144285Y-83117619D02*
X128334761Y-83193809D01*
X128715714Y-83193809D01*
X128906190Y-83117619D01*
X129001428Y-82965238D01*
X129001428Y-82355714D01*
X128906190Y-82203333D01*
X128715714Y-82127142D01*
X128334761Y-82127142D01*
X128144285Y-82203333D01*
X128049047Y-82355714D01*
X128049047Y-82508095D01*
X129001428Y-82660476D01*
X127191904Y-83193809D02*
X127191904Y-82127142D01*
X127191904Y-82431904D02*
X127096666Y-82279523D01*
X127001428Y-82203333D01*
X126810952Y-82127142D01*
X126620476Y-82127142D01*
X125953809Y-83193809D02*
X125953809Y-82127142D01*
X125953809Y-82279523D02*
X125858571Y-82203333D01*
X125668095Y-82127142D01*
X125382380Y-82127142D01*
X125191904Y-82203333D01*
X125096666Y-82355714D01*
X125096666Y-83193809D01*
X125096666Y-82355714D02*
X125001428Y-82203333D01*
X124810952Y-82127142D01*
X124525238Y-82127142D01*
X124334761Y-82203333D01*
X124239523Y-82355714D01*
X124239523Y-83193809D01*
X122430000Y-83193809D02*
X122430000Y-82355714D01*
X122525238Y-82203333D01*
X122715714Y-82127142D01*
X123096666Y-82127142D01*
X123287142Y-82203333D01*
X122430000Y-83117619D02*
X122620476Y-83193809D01*
X123096666Y-83193809D01*
X123287142Y-83117619D01*
X123382380Y-82965238D01*
X123382380Y-82812857D01*
X123287142Y-82660476D01*
X123096666Y-82584285D01*
X122620476Y-82584285D01*
X122430000Y-82508095D01*
X121477619Y-82127142D02*
X121477619Y-83193809D01*
X121477619Y-82279523D02*
X121382380Y-82203333D01*
X121191904Y-82127142D01*
X120906190Y-82127142D01*
X120715714Y-82203333D01*
X120620476Y-82355714D01*
X120620476Y-83193809D01*
X119858571Y-82127142D02*
X119382380Y-83193809D01*
X118906190Y-82127142D02*
X119382380Y-83193809D01*
X119572857Y-83574761D01*
X119668095Y-83650952D01*
X119858571Y-83727142D01*
X115858571Y-83117619D02*
X116049047Y-83193809D01*
X116430000Y-83193809D01*
X116620476Y-83117619D01*
X116715714Y-82965238D01*
X116715714Y-82355714D01*
X116620476Y-82203333D01*
X116430000Y-82127142D01*
X116049047Y-82127142D01*
X115858571Y-82203333D01*
X115763333Y-82355714D01*
X115763333Y-82508095D01*
X116715714Y-82660476D01*
X114906190Y-83041428D02*
X114810952Y-83117619D01*
X114906190Y-83193809D01*
X115001428Y-83117619D01*
X114906190Y-83041428D01*
X114906190Y-83193809D01*
X114239523Y-81593809D02*
X113572857Y-83193809D01*
X112906190Y-81593809D01*
X112239523Y-83041428D02*
X112144285Y-83117619D01*
X112239523Y-83193809D01*
X112334761Y-83117619D01*
X112239523Y-83041428D01*
X112239523Y-83193809D01*
X163239523Y-85893809D02*
X163239523Y-84293809D01*
X162382380Y-85893809D02*
X162382380Y-85055714D01*
X162477619Y-84903333D01*
X162668095Y-84827142D01*
X162953809Y-84827142D01*
X163144285Y-84903333D01*
X163239523Y-84979523D01*
X161715714Y-84827142D02*
X160953809Y-84827142D01*
X161430000Y-84293809D02*
X161430000Y-85665238D01*
X161334761Y-85817619D01*
X161144285Y-85893809D01*
X160953809Y-85893809D01*
X160572857Y-84827142D02*
X159810952Y-84827142D01*
X160287142Y-84293809D02*
X160287142Y-85665238D01*
X160191904Y-85817619D01*
X160001428Y-85893809D01*
X159810952Y-85893809D01*
X159144285Y-84827142D02*
X159144285Y-86427142D01*
X159144285Y-84903333D02*
X158953809Y-84827142D01*
X158572857Y-84827142D01*
X158382380Y-84903333D01*
X158287142Y-84979523D01*
X158191904Y-85131904D01*
X158191904Y-85589047D01*
X158287142Y-85741428D01*
X158382380Y-85817619D01*
X158572857Y-85893809D01*
X158953809Y-85893809D01*
X159144285Y-85817619D01*
X157334761Y-85741428D02*
X157239523Y-85817619D01*
X157334761Y-85893809D01*
X157430000Y-85817619D01*
X157334761Y-85741428D01*
X157334761Y-85893809D01*
X157334761Y-84903333D02*
X157239523Y-84979523D01*
X157334761Y-85055714D01*
X157430000Y-84979523D01*
X157334761Y-84903333D01*
X157334761Y-85055714D01*
X154953809Y-84217619D02*
X156668095Y-86274761D01*
X152858571Y-84217619D02*
X154572857Y-86274761D01*
X152382380Y-84827142D02*
X152001428Y-85893809D01*
X151620476Y-85131904D01*
X151239523Y-85893809D01*
X150858571Y-84827142D01*
X150096666Y-85893809D02*
X150096666Y-84827142D01*
X150096666Y-84293809D02*
X150191904Y-84370000D01*
X150096666Y-84446190D01*
X150001428Y-84370000D01*
X150096666Y-84293809D01*
X150096666Y-84446190D01*
X149144285Y-85893809D02*
X149144285Y-84293809D01*
X148953809Y-85284285D02*
X148382380Y-85893809D01*
X148382380Y-84827142D02*
X149144285Y-85436666D01*
X147525238Y-85893809D02*
X147525238Y-84827142D01*
X147525238Y-84293809D02*
X147620476Y-84370000D01*
X147525238Y-84446190D01*
X147430000Y-84370000D01*
X147525238Y-84293809D01*
X147525238Y-84446190D01*
X146572857Y-85741428D02*
X146477619Y-85817619D01*
X146572857Y-85893809D01*
X146668095Y-85817619D01*
X146572857Y-85741428D01*
X146572857Y-85893809D01*
X145334761Y-85893809D02*
X145525238Y-85817619D01*
X145620476Y-85741428D01*
X145715714Y-85589047D01*
X145715714Y-85131904D01*
X145620476Y-84979523D01*
X145525238Y-84903333D01*
X145334761Y-84827142D01*
X145049047Y-84827142D01*
X144858571Y-84903333D01*
X144763333Y-84979523D01*
X144668095Y-85131904D01*
X144668095Y-85589047D01*
X144763333Y-85741428D01*
X144858571Y-85817619D01*
X145049047Y-85893809D01*
X145334761Y-85893809D01*
X143810952Y-84827142D02*
X143810952Y-86427142D01*
X143810952Y-84903333D02*
X143620476Y-84827142D01*
X143239523Y-84827142D01*
X143049047Y-84903333D01*
X142953809Y-84979523D01*
X142858571Y-85131904D01*
X142858571Y-85589047D01*
X142953809Y-85741428D01*
X143049047Y-85817619D01*
X143239523Y-85893809D01*
X143620476Y-85893809D01*
X143810952Y-85817619D01*
X141239523Y-85817619D02*
X141430000Y-85893809D01*
X141810952Y-85893809D01*
X142001428Y-85817619D01*
X142096666Y-85665238D01*
X142096666Y-85055714D01*
X142001428Y-84903333D01*
X141810952Y-84827142D01*
X141430000Y-84827142D01*
X141239523Y-84903333D01*
X141144285Y-85055714D01*
X141144285Y-85208095D01*
X142096666Y-85360476D01*
X140287142Y-84827142D02*
X140287142Y-85893809D01*
X140287142Y-84979523D02*
X140191904Y-84903333D01*
X140001428Y-84827142D01*
X139715714Y-84827142D01*
X139525238Y-84903333D01*
X139430000Y-85055714D01*
X139430000Y-85893809D01*
X138572857Y-85817619D02*
X138382380Y-85893809D01*
X138001428Y-85893809D01*
X137810952Y-85817619D01*
X137715714Y-85665238D01*
X137715714Y-85589047D01*
X137810952Y-85436666D01*
X138001428Y-85360476D01*
X138287142Y-85360476D01*
X138477619Y-85284285D01*
X138572857Y-85131904D01*
X138572857Y-85055714D01*
X138477619Y-84903333D01*
X138287142Y-84827142D01*
X138001428Y-84827142D01*
X137810952Y-84903333D01*
X136572857Y-85893809D02*
X136763333Y-85817619D01*
X136858571Y-85741428D01*
X136953809Y-85589047D01*
X136953809Y-85131904D01*
X136858571Y-84979523D01*
X136763333Y-84903333D01*
X136572857Y-84827142D01*
X136287142Y-84827142D01*
X136096666Y-84903333D01*
X136001428Y-84979523D01*
X135906190Y-85131904D01*
X135906190Y-85589047D01*
X136001428Y-85741428D01*
X136096666Y-85817619D01*
X136287142Y-85893809D01*
X136572857Y-85893809D01*
X134191904Y-84827142D02*
X134191904Y-85893809D01*
X135049047Y-84827142D02*
X135049047Y-85665238D01*
X134953809Y-85817619D01*
X134763333Y-85893809D01*
X134477619Y-85893809D01*
X134287142Y-85817619D01*
X134191904Y-85741428D01*
X133239523Y-85893809D02*
X133239523Y-84827142D01*
X133239523Y-85131904D02*
X133144285Y-84979523D01*
X133049047Y-84903333D01*
X132858571Y-84827142D01*
X132668095Y-84827142D01*
X131144285Y-85817619D02*
X131334761Y-85893809D01*
X131715714Y-85893809D01*
X131906190Y-85817619D01*
X132001428Y-85741428D01*
X132096666Y-85589047D01*
X132096666Y-85131904D01*
X132001428Y-84979523D01*
X131906190Y-84903333D01*
X131715714Y-84827142D01*
X131334761Y-84827142D01*
X131144285Y-84903333D01*
X129525238Y-85817619D02*
X129715714Y-85893809D01*
X130096666Y-85893809D01*
X130287142Y-85817619D01*
X130382380Y-85665238D01*
X130382380Y-85055714D01*
X130287142Y-84903333D01*
X130096666Y-84827142D01*
X129715714Y-84827142D01*
X129525238Y-84903333D01*
X129430000Y-85055714D01*
X129430000Y-85208095D01*
X130382380Y-85360476D01*
X127810952Y-85817619D02*
X128001428Y-85893809D01*
X128382380Y-85893809D01*
X128572857Y-85817619D01*
X128668095Y-85665238D01*
X128668095Y-85055714D01*
X128572857Y-84903333D01*
X128382380Y-84827142D01*
X128001428Y-84827142D01*
X127810952Y-84903333D01*
X127715714Y-85055714D01*
X127715714Y-85208095D01*
X128668095Y-85360476D01*
X126001428Y-85817619D02*
X126191904Y-85893809D01*
X126572857Y-85893809D01*
X126763333Y-85817619D01*
X126858571Y-85741428D01*
X126953809Y-85589047D01*
X126953809Y-85131904D01*
X126858571Y-84979523D01*
X126763333Y-84903333D01*
X126572857Y-84827142D01*
X126191904Y-84827142D01*
X126001428Y-84903333D01*
X124858571Y-85893809D02*
X125049047Y-85817619D01*
X125144285Y-85741428D01*
X125239523Y-85589047D01*
X125239523Y-85131904D01*
X125144285Y-84979523D01*
X125049047Y-84903333D01*
X124858571Y-84827142D01*
X124572857Y-84827142D01*
X124382380Y-84903333D01*
X124287142Y-84979523D01*
X124191904Y-85131904D01*
X124191904Y-85589047D01*
X124287142Y-85741428D01*
X124382380Y-85817619D01*
X124572857Y-85893809D01*
X124858571Y-85893809D01*
X123049047Y-85893809D02*
X123239523Y-85817619D01*
X123334761Y-85665238D01*
X123334761Y-84293809D01*
X122001428Y-85893809D02*
X122191904Y-85817619D01*
X122287142Y-85741428D01*
X122382380Y-85589047D01*
X122382380Y-85131904D01*
X122287142Y-84979523D01*
X122191904Y-84903333D01*
X122001428Y-84827142D01*
X121715714Y-84827142D01*
X121525238Y-84903333D01*
X121430000Y-84979523D01*
X121334761Y-85131904D01*
X121334761Y-85589047D01*
X121430000Y-85741428D01*
X121525238Y-85817619D01*
X121715714Y-85893809D01*
X122001428Y-85893809D01*
X119620476Y-84827142D02*
X119620476Y-86122380D01*
X119715714Y-86274761D01*
X119810952Y-86350952D01*
X120001428Y-86427142D01*
X120287142Y-86427142D01*
X120477619Y-86350952D01*
X119620476Y-85817619D02*
X119810952Y-85893809D01*
X120191904Y-85893809D01*
X120382380Y-85817619D01*
X120477619Y-85741428D01*
X120572857Y-85589047D01*
X120572857Y-85131904D01*
X120477619Y-84979523D01*
X120382380Y-84903333D01*
X120191904Y-84827142D01*
X119810952Y-84827142D01*
X119620476Y-84903333D01*
X118858571Y-84827142D02*
X118382380Y-85893809D01*
X117906190Y-84827142D02*
X118382380Y-85893809D01*
X118572857Y-86274761D01*
X118668095Y-86350952D01*
X118858571Y-86427142D01*
X117144285Y-85741428D02*
X117049047Y-85817619D01*
X117144285Y-85893809D01*
X117239523Y-85817619D01*
X117144285Y-85741428D01*
X117144285Y-85893809D01*
X115334761Y-85893809D02*
X115334761Y-84293809D01*
X115334761Y-85817619D02*
X115525238Y-85893809D01*
X115906190Y-85893809D01*
X116096666Y-85817619D01*
X116191904Y-85741428D01*
X116287142Y-85589047D01*
X116287142Y-85131904D01*
X116191904Y-84979523D01*
X116096666Y-84903333D01*
X115906190Y-84827142D01*
X115525238Y-84827142D01*
X115334761Y-84903333D01*
X113620476Y-85817619D02*
X113810952Y-85893809D01*
X114191904Y-85893809D01*
X114382380Y-85817619D01*
X114477619Y-85665238D01*
X114477619Y-85055714D01*
X114382380Y-84903333D01*
X114191904Y-84827142D01*
X113810952Y-84827142D01*
X113620476Y-84903333D01*
X113525238Y-85055714D01*
X113525238Y-85208095D01*
X114477619Y-85360476D01*
M02*
