G04 #@! TF.GenerationSoftware,KiCad,Pcbnew,5.0.2+dfsg1-1~bpo9+1*
G04 #@! TF.CreationDate,2022-11-14T20:46:36+01:00*
G04 #@! TF.ProjectId,breadpcb1,62726561-6470-4636-9231-2e6b69636164,rev?*
G04 #@! TF.SameCoordinates,Original*
G04 #@! TF.FileFunction,Copper,L1,Top*
G04 #@! TF.FilePolarity,Positive*
%FSLAX46Y46*%
G04 Gerber Fmt 4.6, Leading zero omitted, Abs format (unit mm)*
G04 Created by KiCad (PCBNEW 5.0.2+dfsg1-1~bpo9+1) date Mo 14 Nov 2022 20:46:36 CET*
%MOMM*%
%LPD*%
G01*
G04 APERTURE LIST*
G04 #@! TA.AperFunction,ComponentPad*
%ADD10R,1.700000X1.700000*%
G04 #@! TD*
G04 #@! TA.AperFunction,ComponentPad*
%ADD11O,1.700000X1.700000*%
G04 #@! TD*
G04 #@! TA.AperFunction,ComponentPad*
%ADD12C,1.700000*%
G04 #@! TD*
G04 APERTURE END LIST*
D10*
G04 #@! TO.P,J2,1*
G04 #@! TO.N,Net-(J2-Pad1)*
X106680000Y-105410000D03*
D11*
G04 #@! TO.P,J2,2*
X109220000Y-105410000D03*
G04 #@! TO.P,J2,3*
X111760000Y-105410000D03*
G04 #@! TO.P,J2,4*
X114300000Y-105410000D03*
G04 #@! TO.P,J2,5*
X116840000Y-105410000D03*
G04 #@! TO.P,J2,6*
X119380000Y-105410000D03*
G04 #@! TO.P,J2,7*
X121920000Y-105410000D03*
G04 #@! TO.P,J2,8*
X124460000Y-105410000D03*
G04 #@! TO.P,J2,9*
X127000000Y-105410000D03*
G04 #@! TO.P,J2,10*
X129540000Y-105410000D03*
G04 #@! TO.P,J2,11*
X132080000Y-105410000D03*
G04 #@! TO.P,J2,12*
X134620000Y-105410000D03*
G04 #@! TO.P,J2,13*
X137160000Y-105410000D03*
G04 #@! TO.P,J2,14*
X139700000Y-105410000D03*
G04 #@! TO.P,J2,15*
X142240000Y-105410000D03*
G04 #@! TO.P,J2,16*
X144780000Y-105410000D03*
G04 #@! TO.P,J2,17*
X147320000Y-105410000D03*
G04 #@! TO.P,J2,18*
X149860000Y-105410000D03*
G04 #@! TO.P,J2,19*
X152400000Y-105410000D03*
G04 #@! TO.P,J2,20*
X154940000Y-105410000D03*
G04 #@! TO.P,J2,21*
X157480000Y-105410000D03*
G04 #@! TO.P,J2,22*
X160020000Y-105410000D03*
G04 #@! TO.P,J2,23*
X162560000Y-105410000D03*
G04 #@! TO.P,J2,24*
X165100000Y-105410000D03*
G04 #@! TO.P,J2,25*
X167640000Y-105410000D03*
G04 #@! TO.P,J2,26*
X170180000Y-105410000D03*
G04 #@! TD*
D10*
G04 #@! TO.P,J2,1*
G04 #@! TO.N,Net-(J2-Pad1)*
X170180000Y-102870000D03*
D11*
G04 #@! TO.P,J2,2*
X167640000Y-102870000D03*
G04 #@! TO.P,J2,3*
X165100000Y-102870000D03*
G04 #@! TO.P,J2,4*
X162560000Y-102870000D03*
G04 #@! TO.P,J2,5*
X160020000Y-102870000D03*
G04 #@! TO.P,J2,6*
X157480000Y-102870000D03*
G04 #@! TO.P,J2,7*
X154940000Y-102870000D03*
G04 #@! TO.P,J2,8*
X152400000Y-102870000D03*
G04 #@! TO.P,J2,9*
X149860000Y-102870000D03*
G04 #@! TO.P,J2,10*
X147320000Y-102870000D03*
G04 #@! TO.P,J2,11*
X144780000Y-102870000D03*
G04 #@! TO.P,J2,12*
X142240000Y-102870000D03*
G04 #@! TO.P,J2,13*
X139700000Y-102870000D03*
G04 #@! TO.P,J2,14*
X137160000Y-102870000D03*
G04 #@! TO.P,J2,15*
X134620000Y-102870000D03*
G04 #@! TO.P,J2,16*
X132080000Y-102870000D03*
G04 #@! TO.P,J2,17*
X129540000Y-102870000D03*
G04 #@! TO.P,J2,18*
X127000000Y-102870000D03*
G04 #@! TO.P,J2,19*
X124460000Y-102870000D03*
G04 #@! TO.P,J2,20*
X121920000Y-102870000D03*
G04 #@! TO.P,J2,21*
X119380000Y-102870000D03*
G04 #@! TO.P,J2,22*
X116840000Y-102870000D03*
G04 #@! TO.P,J2,23*
X114300000Y-102870000D03*
G04 #@! TO.P,J2,24*
X111760000Y-102870000D03*
G04 #@! TO.P,J2,25*
X109220000Y-102870000D03*
G04 #@! TO.P,J2,26*
X106680000Y-102870000D03*
G04 #@! TD*
D10*
G04 #@! TO.P,J2,1*
G04 #@! TO.N,Net-(J2-Pad1)*
X170180000Y-62230000D03*
D11*
G04 #@! TO.P,J2,2*
X167640000Y-62230000D03*
G04 #@! TO.P,J2,3*
X165100000Y-62230000D03*
G04 #@! TO.P,J2,4*
X162560000Y-62230000D03*
G04 #@! TO.P,J2,5*
X160020000Y-62230000D03*
G04 #@! TO.P,J2,6*
X157480000Y-62230000D03*
G04 #@! TO.P,J2,7*
X154940000Y-62230000D03*
G04 #@! TO.P,J2,8*
X152400000Y-62230000D03*
G04 #@! TO.P,J2,9*
X149860000Y-62230000D03*
G04 #@! TO.P,J2,10*
X147320000Y-62230000D03*
G04 #@! TO.P,J2,11*
X144780000Y-62230000D03*
G04 #@! TO.P,J2,12*
X142240000Y-62230000D03*
G04 #@! TO.P,J2,13*
X139700000Y-62230000D03*
G04 #@! TO.P,J2,14*
X137160000Y-62230000D03*
G04 #@! TO.P,J2,15*
X134620000Y-62230000D03*
G04 #@! TO.P,J2,16*
X132080000Y-62230000D03*
G04 #@! TO.P,J2,17*
X129540000Y-62230000D03*
G04 #@! TO.P,J2,18*
X127000000Y-62230000D03*
G04 #@! TO.P,J2,19*
X124460000Y-62230000D03*
G04 #@! TO.P,J2,20*
X121920000Y-62230000D03*
G04 #@! TO.P,J2,21*
X119380000Y-62230000D03*
G04 #@! TO.P,J2,22*
X116840000Y-62230000D03*
G04 #@! TO.P,J2,23*
X114300000Y-62230000D03*
G04 #@! TO.P,J2,24*
X111760000Y-62230000D03*
G04 #@! TO.P,J2,25*
X109220000Y-62230000D03*
G04 #@! TO.P,J2,26*
X106680000Y-62230000D03*
G04 #@! TD*
D10*
G04 #@! TO.P,J2,1*
G04 #@! TO.N,Net-(J2-Pad1)*
X106680000Y-64770000D03*
D11*
G04 #@! TO.P,J2,2*
X109220000Y-64770000D03*
G04 #@! TO.P,J2,3*
X111760000Y-64770000D03*
G04 #@! TO.P,J2,4*
X114300000Y-64770000D03*
G04 #@! TO.P,J2,5*
X116840000Y-64770000D03*
G04 #@! TO.P,J2,6*
X119380000Y-64770000D03*
G04 #@! TO.P,J2,7*
X121920000Y-64770000D03*
G04 #@! TO.P,J2,8*
X124460000Y-64770000D03*
G04 #@! TO.P,J2,9*
X127000000Y-64770000D03*
G04 #@! TO.P,J2,10*
X129540000Y-64770000D03*
G04 #@! TO.P,J2,11*
X132080000Y-64770000D03*
G04 #@! TO.P,J2,12*
X134620000Y-64770000D03*
G04 #@! TO.P,J2,13*
X137160000Y-64770000D03*
G04 #@! TO.P,J2,14*
X139700000Y-64770000D03*
G04 #@! TO.P,J2,15*
X142240000Y-64770000D03*
G04 #@! TO.P,J2,16*
X144780000Y-64770000D03*
G04 #@! TO.P,J2,17*
X147320000Y-64770000D03*
G04 #@! TO.P,J2,18*
X149860000Y-64770000D03*
G04 #@! TO.P,J2,19*
X152400000Y-64770000D03*
G04 #@! TO.P,J2,20*
X154940000Y-64770000D03*
G04 #@! TO.P,J2,21*
X157480000Y-64770000D03*
G04 #@! TO.P,J2,22*
X160020000Y-64770000D03*
G04 #@! TO.P,J2,23*
X162560000Y-64770000D03*
G04 #@! TO.P,J2,24*
X165100000Y-64770000D03*
G04 #@! TO.P,J2,25*
X167640000Y-64770000D03*
G04 #@! TO.P,J2,26*
X170180000Y-64770000D03*
G04 #@! TD*
D10*
G04 #@! TO.P,J1,1*
G04 #@! TO.N,Net-(J1-Pad1)*
X114300000Y-97790000D03*
D11*
G04 #@! TO.P,J1,2*
X114300000Y-95250000D03*
G04 #@! TO.P,J1,3*
X114300000Y-92710000D03*
G04 #@! TO.P,J1,4*
X114300000Y-90170000D03*
G04 #@! TO.P,J1,5*
X114300000Y-87630000D03*
G04 #@! TD*
D10*
G04 #@! TO.P,J1,1*
G04 #@! TO.N,Net-(J1-Pad1)*
X104140000Y-97790000D03*
D11*
G04 #@! TO.P,J1,2*
X104140000Y-95250000D03*
G04 #@! TO.P,J1,3*
X104140000Y-92710000D03*
G04 #@! TO.P,J1,4*
X104140000Y-90170000D03*
G04 #@! TO.P,J1,5*
X104140000Y-87630000D03*
G04 #@! TD*
D10*
G04 #@! TO.P,J1,1*
G04 #@! TO.N,Net-(J1-Pad1)*
X119380000Y-97790000D03*
D11*
G04 #@! TO.P,J1,2*
X119380000Y-95250000D03*
G04 #@! TO.P,J1,3*
X119380000Y-92710000D03*
G04 #@! TO.P,J1,4*
X119380000Y-90170000D03*
G04 #@! TO.P,J1,5*
X119380000Y-87630000D03*
G04 #@! TD*
D10*
G04 #@! TO.P,J1,1*
G04 #@! TO.N,Net-(J1-Pad1)*
X116840000Y-97790000D03*
D11*
G04 #@! TO.P,J1,2*
X116840000Y-95250000D03*
G04 #@! TO.P,J1,3*
X116840000Y-92710000D03*
G04 #@! TO.P,J1,4*
X116840000Y-90170000D03*
G04 #@! TO.P,J1,5*
X116840000Y-87630000D03*
G04 #@! TD*
D10*
G04 #@! TO.P,J1,1*
G04 #@! TO.N,Net-(J1-Pad1)*
X111760000Y-97790000D03*
D11*
G04 #@! TO.P,J1,2*
X111760000Y-95250000D03*
G04 #@! TO.P,J1,3*
X111760000Y-92710000D03*
G04 #@! TO.P,J1,4*
X111760000Y-90170000D03*
G04 #@! TO.P,J1,5*
X111760000Y-87630000D03*
G04 #@! TD*
D10*
G04 #@! TO.P,J1,1*
G04 #@! TO.N,Net-(J1-Pad1)*
X106680000Y-97790000D03*
D11*
G04 #@! TO.P,J1,2*
X106680000Y-95250000D03*
G04 #@! TO.P,J1,3*
X106680000Y-92710000D03*
G04 #@! TO.P,J1,4*
X106680000Y-90170000D03*
G04 #@! TO.P,J1,5*
X106680000Y-87630000D03*
G04 #@! TD*
D10*
G04 #@! TO.P,J1,1*
G04 #@! TO.N,Net-(J1-Pad1)*
X121920000Y-97790000D03*
D11*
G04 #@! TO.P,J1,2*
X121920000Y-95250000D03*
G04 #@! TO.P,J1,3*
X121920000Y-92710000D03*
G04 #@! TO.P,J1,4*
X121920000Y-90170000D03*
G04 #@! TO.P,J1,5*
X121920000Y-87630000D03*
G04 #@! TD*
D10*
G04 #@! TO.P,J1,1*
G04 #@! TO.N,Net-(J1-Pad1)*
X109220000Y-97790000D03*
D11*
G04 #@! TO.P,J1,2*
X109220000Y-95250000D03*
G04 #@! TO.P,J1,3*
X109220000Y-92710000D03*
G04 #@! TO.P,J1,4*
X109220000Y-90170000D03*
G04 #@! TO.P,J1,5*
X109220000Y-87630000D03*
G04 #@! TD*
D10*
G04 #@! TO.P,J1,1*
G04 #@! TO.N,Net-(J1-Pad1)*
X101600000Y-97790000D03*
D11*
G04 #@! TO.P,J1,2*
X101600000Y-95250000D03*
G04 #@! TO.P,J1,3*
X101600000Y-92710000D03*
G04 #@! TO.P,J1,4*
X101600000Y-90170000D03*
G04 #@! TO.P,J1,5*
X101600000Y-87630000D03*
G04 #@! TD*
D10*
G04 #@! TO.P,J1,1*
G04 #@! TO.N,Net-(J1-Pad1)*
X172720000Y-97790000D03*
D11*
G04 #@! TO.P,J1,2*
X172720000Y-95250000D03*
G04 #@! TO.P,J1,3*
X172720000Y-92710000D03*
G04 #@! TO.P,J1,4*
X172720000Y-90170000D03*
G04 #@! TO.P,J1,5*
X172720000Y-87630000D03*
G04 #@! TD*
D10*
G04 #@! TO.P,J1,1*
G04 #@! TO.N,Net-(J1-Pad1)*
X154940000Y-97790000D03*
D11*
G04 #@! TO.P,J1,2*
X154940000Y-95250000D03*
G04 #@! TO.P,J1,3*
X154940000Y-92710000D03*
G04 #@! TO.P,J1,4*
X154940000Y-90170000D03*
G04 #@! TO.P,J1,5*
X154940000Y-87630000D03*
G04 #@! TD*
D10*
G04 #@! TO.P,J1,1*
G04 #@! TO.N,Net-(J1-Pad1)*
X149860000Y-97790000D03*
D11*
G04 #@! TO.P,J1,2*
X149860000Y-95250000D03*
G04 #@! TO.P,J1,3*
X149860000Y-92710000D03*
G04 #@! TO.P,J1,4*
X149860000Y-90170000D03*
G04 #@! TO.P,J1,5*
X149860000Y-87630000D03*
G04 #@! TD*
D10*
G04 #@! TO.P,J1,1*
G04 #@! TO.N,Net-(J1-Pad1)*
X170180000Y-97790000D03*
D11*
G04 #@! TO.P,J1,2*
X170180000Y-95250000D03*
G04 #@! TO.P,J1,3*
X170180000Y-92710000D03*
G04 #@! TO.P,J1,4*
X170180000Y-90170000D03*
G04 #@! TO.P,J1,5*
X170180000Y-87630000D03*
G04 #@! TD*
D10*
G04 #@! TO.P,J1,1*
G04 #@! TO.N,Net-(J1-Pad1)*
X152400000Y-97790000D03*
D11*
G04 #@! TO.P,J1,2*
X152400000Y-95250000D03*
G04 #@! TO.P,J1,3*
X152400000Y-92710000D03*
G04 #@! TO.P,J1,4*
X152400000Y-90170000D03*
G04 #@! TO.P,J1,5*
X152400000Y-87630000D03*
G04 #@! TD*
D10*
G04 #@! TO.P,J1,1*
G04 #@! TO.N,Net-(J1-Pad1)*
X157480000Y-97790000D03*
D11*
G04 #@! TO.P,J1,2*
X157480000Y-95250000D03*
G04 #@! TO.P,J1,3*
X157480000Y-92710000D03*
G04 #@! TO.P,J1,4*
X157480000Y-90170000D03*
G04 #@! TO.P,J1,5*
X157480000Y-87630000D03*
G04 #@! TD*
D10*
G04 #@! TO.P,J1,1*
G04 #@! TO.N,Net-(J1-Pad1)*
X160020000Y-97790000D03*
D11*
G04 #@! TO.P,J1,2*
X160020000Y-95250000D03*
G04 #@! TO.P,J1,3*
X160020000Y-92710000D03*
G04 #@! TO.P,J1,4*
X160020000Y-90170000D03*
G04 #@! TO.P,J1,5*
X160020000Y-87630000D03*
G04 #@! TD*
D10*
G04 #@! TO.P,J1,1*
G04 #@! TO.N,Net-(J1-Pad1)*
X162560000Y-97790000D03*
D11*
G04 #@! TO.P,J1,2*
X162560000Y-95250000D03*
G04 #@! TO.P,J1,3*
X162560000Y-92710000D03*
G04 #@! TO.P,J1,4*
X162560000Y-90170000D03*
G04 #@! TO.P,J1,5*
X162560000Y-87630000D03*
G04 #@! TD*
D10*
G04 #@! TO.P,J1,1*
G04 #@! TO.N,Net-(J1-Pad1)*
X147320000Y-97790000D03*
D11*
G04 #@! TO.P,J1,2*
X147320000Y-95250000D03*
G04 #@! TO.P,J1,3*
X147320000Y-92710000D03*
G04 #@! TO.P,J1,4*
X147320000Y-90170000D03*
G04 #@! TO.P,J1,5*
X147320000Y-87630000D03*
G04 #@! TD*
D10*
G04 #@! TO.P,J1,1*
G04 #@! TO.N,Net-(J1-Pad1)*
X142240000Y-97790000D03*
D11*
G04 #@! TO.P,J1,2*
X142240000Y-95250000D03*
G04 #@! TO.P,J1,3*
X142240000Y-92710000D03*
G04 #@! TO.P,J1,4*
X142240000Y-90170000D03*
G04 #@! TO.P,J1,5*
X142240000Y-87630000D03*
G04 #@! TD*
D10*
G04 #@! TO.P,J1,1*
G04 #@! TO.N,Net-(J1-Pad1)*
X165100000Y-97790000D03*
D11*
G04 #@! TO.P,J1,2*
X165100000Y-95250000D03*
G04 #@! TO.P,J1,3*
X165100000Y-92710000D03*
G04 #@! TO.P,J1,4*
X165100000Y-90170000D03*
G04 #@! TO.P,J1,5*
X165100000Y-87630000D03*
G04 #@! TD*
D10*
G04 #@! TO.P,J1,1*
G04 #@! TO.N,Net-(J1-Pad1)*
X167640000Y-97790000D03*
D11*
G04 #@! TO.P,J1,2*
X167640000Y-95250000D03*
G04 #@! TO.P,J1,3*
X167640000Y-92710000D03*
G04 #@! TO.P,J1,4*
X167640000Y-90170000D03*
G04 #@! TO.P,J1,5*
X167640000Y-87630000D03*
G04 #@! TD*
D10*
G04 #@! TO.P,J1,1*
G04 #@! TO.N,Net-(J1-Pad1)*
X144780000Y-97790000D03*
D11*
G04 #@! TO.P,J1,2*
X144780000Y-95250000D03*
G04 #@! TO.P,J1,3*
X144780000Y-92710000D03*
G04 #@! TO.P,J1,4*
X144780000Y-90170000D03*
G04 #@! TO.P,J1,5*
X144780000Y-87630000D03*
G04 #@! TD*
D10*
G04 #@! TO.P,J1,1*
G04 #@! TO.N,Net-(J1-Pad1)*
X139700000Y-97790000D03*
D11*
G04 #@! TO.P,J1,2*
X139700000Y-95250000D03*
G04 #@! TO.P,J1,3*
X139700000Y-92710000D03*
G04 #@! TO.P,J1,4*
X139700000Y-90170000D03*
G04 #@! TO.P,J1,5*
X139700000Y-87630000D03*
G04 #@! TD*
D10*
G04 #@! TO.P,J1,1*
G04 #@! TO.N,Net-(J1-Pad1)*
X132080000Y-97790000D03*
D11*
G04 #@! TO.P,J1,2*
X132080000Y-95250000D03*
G04 #@! TO.P,J1,3*
X132080000Y-92710000D03*
G04 #@! TO.P,J1,4*
X132080000Y-90170000D03*
G04 #@! TO.P,J1,5*
X132080000Y-87630000D03*
G04 #@! TD*
D10*
G04 #@! TO.P,J1,1*
G04 #@! TO.N,Net-(J1-Pad1)*
X134620000Y-97790000D03*
D11*
G04 #@! TO.P,J1,2*
X134620000Y-95250000D03*
G04 #@! TO.P,J1,3*
X134620000Y-92710000D03*
G04 #@! TO.P,J1,4*
X134620000Y-90170000D03*
G04 #@! TO.P,J1,5*
X134620000Y-87630000D03*
G04 #@! TD*
D10*
G04 #@! TO.P,J1,1*
G04 #@! TO.N,Net-(J1-Pad1)*
X175260000Y-97790000D03*
D11*
G04 #@! TO.P,J1,2*
X175260000Y-95250000D03*
G04 #@! TO.P,J1,3*
X175260000Y-92710000D03*
G04 #@! TO.P,J1,4*
X175260000Y-90170000D03*
G04 #@! TO.P,J1,5*
X175260000Y-87630000D03*
G04 #@! TD*
D10*
G04 #@! TO.P,J1,1*
G04 #@! TO.N,Net-(J1-Pad1)*
X137160000Y-97790000D03*
D11*
G04 #@! TO.P,J1,2*
X137160000Y-95250000D03*
G04 #@! TO.P,J1,3*
X137160000Y-92710000D03*
G04 #@! TO.P,J1,4*
X137160000Y-90170000D03*
G04 #@! TO.P,J1,5*
X137160000Y-87630000D03*
G04 #@! TD*
D10*
G04 #@! TO.P,J1,1*
G04 #@! TO.N,Net-(J1-Pad1)*
X129540000Y-97790000D03*
D11*
G04 #@! TO.P,J1,2*
X129540000Y-95250000D03*
G04 #@! TO.P,J1,3*
X129540000Y-92710000D03*
G04 #@! TO.P,J1,4*
X129540000Y-90170000D03*
G04 #@! TO.P,J1,5*
X129540000Y-87630000D03*
G04 #@! TD*
D10*
G04 #@! TO.P,J1,1*
G04 #@! TO.N,Net-(J1-Pad1)*
X124460000Y-97790000D03*
D11*
G04 #@! TO.P,J1,2*
X124460000Y-95250000D03*
G04 #@! TO.P,J1,3*
X124460000Y-92710000D03*
G04 #@! TO.P,J1,4*
X124460000Y-90170000D03*
G04 #@! TO.P,J1,5*
X124460000Y-87630000D03*
G04 #@! TD*
D10*
G04 #@! TO.P,J1,1*
G04 #@! TO.N,Net-(J1-Pad1)*
X127000000Y-97790000D03*
D11*
G04 #@! TO.P,J1,2*
X127000000Y-95250000D03*
G04 #@! TO.P,J1,3*
X127000000Y-92710000D03*
G04 #@! TO.P,J1,4*
X127000000Y-90170000D03*
G04 #@! TO.P,J1,5*
X127000000Y-87630000D03*
G04 #@! TD*
D10*
G04 #@! TO.P,J1,1*
G04 #@! TO.N,Net-(J1-Pad1)*
X175260000Y-69850000D03*
D11*
G04 #@! TO.P,J1,2*
X175260000Y-72390000D03*
G04 #@! TO.P,J1,3*
X175260000Y-74930000D03*
G04 #@! TO.P,J1,4*
X175260000Y-77470000D03*
G04 #@! TO.P,J1,5*
X175260000Y-80010000D03*
G04 #@! TD*
D10*
G04 #@! TO.P,J1,1*
G04 #@! TO.N,Net-(J1-Pad1)*
X172720000Y-69850000D03*
D11*
G04 #@! TO.P,J1,2*
X172720000Y-72390000D03*
G04 #@! TO.P,J1,3*
X172720000Y-74930000D03*
G04 #@! TO.P,J1,4*
X172720000Y-77470000D03*
G04 #@! TO.P,J1,5*
X172720000Y-80010000D03*
G04 #@! TD*
D10*
G04 #@! TO.P,J1,1*
G04 #@! TO.N,Net-(J1-Pad1)*
X170180000Y-69850000D03*
D11*
G04 #@! TO.P,J1,2*
X170180000Y-72390000D03*
G04 #@! TO.P,J1,3*
X170180000Y-74930000D03*
G04 #@! TO.P,J1,4*
X170180000Y-77470000D03*
G04 #@! TO.P,J1,5*
X170180000Y-80010000D03*
G04 #@! TD*
D10*
G04 #@! TO.P,J1,1*
G04 #@! TO.N,Net-(J1-Pad1)*
X167640000Y-69850000D03*
D11*
G04 #@! TO.P,J1,2*
X167640000Y-72390000D03*
G04 #@! TO.P,J1,3*
X167640000Y-74930000D03*
G04 #@! TO.P,J1,4*
X167640000Y-77470000D03*
G04 #@! TO.P,J1,5*
X167640000Y-80010000D03*
G04 #@! TD*
D10*
G04 #@! TO.P,J1,1*
G04 #@! TO.N,Net-(J1-Pad1)*
X165100000Y-69850000D03*
D11*
G04 #@! TO.P,J1,2*
X165100000Y-72390000D03*
G04 #@! TO.P,J1,3*
X165100000Y-74930000D03*
G04 #@! TO.P,J1,4*
X165100000Y-77470000D03*
G04 #@! TO.P,J1,5*
X165100000Y-80010000D03*
G04 #@! TD*
D10*
G04 #@! TO.P,J1,1*
G04 #@! TO.N,Net-(J1-Pad1)*
X162560000Y-69850000D03*
D11*
G04 #@! TO.P,J1,2*
X162560000Y-72390000D03*
G04 #@! TO.P,J1,3*
X162560000Y-74930000D03*
G04 #@! TO.P,J1,4*
X162560000Y-77470000D03*
G04 #@! TO.P,J1,5*
X162560000Y-80010000D03*
G04 #@! TD*
D10*
G04 #@! TO.P,J1,1*
G04 #@! TO.N,Net-(J1-Pad1)*
X160020000Y-69850000D03*
D11*
G04 #@! TO.P,J1,2*
X160020000Y-72390000D03*
G04 #@! TO.P,J1,3*
X160020000Y-74930000D03*
G04 #@! TO.P,J1,4*
X160020000Y-77470000D03*
G04 #@! TO.P,J1,5*
X160020000Y-80010000D03*
G04 #@! TD*
D10*
G04 #@! TO.P,J1,1*
G04 #@! TO.N,Net-(J1-Pad1)*
X157480000Y-69850000D03*
D11*
G04 #@! TO.P,J1,2*
X157480000Y-72390000D03*
G04 #@! TO.P,J1,3*
X157480000Y-74930000D03*
G04 #@! TO.P,J1,4*
X157480000Y-77470000D03*
G04 #@! TO.P,J1,5*
X157480000Y-80010000D03*
G04 #@! TD*
D10*
G04 #@! TO.P,J1,1*
G04 #@! TO.N,Net-(J1-Pad1)*
X154940000Y-69850000D03*
D11*
G04 #@! TO.P,J1,2*
X154940000Y-72390000D03*
G04 #@! TO.P,J1,3*
X154940000Y-74930000D03*
G04 #@! TO.P,J1,4*
X154940000Y-77470000D03*
G04 #@! TO.P,J1,5*
X154940000Y-80010000D03*
G04 #@! TD*
D10*
G04 #@! TO.P,J1,1*
G04 #@! TO.N,Net-(J1-Pad1)*
X152400000Y-69850000D03*
D11*
G04 #@! TO.P,J1,2*
X152400000Y-72390000D03*
G04 #@! TO.P,J1,3*
X152400000Y-74930000D03*
G04 #@! TO.P,J1,4*
X152400000Y-77470000D03*
G04 #@! TO.P,J1,5*
X152400000Y-80010000D03*
G04 #@! TD*
D10*
G04 #@! TO.P,J1,1*
G04 #@! TO.N,Net-(J1-Pad1)*
X149860000Y-69850000D03*
D11*
G04 #@! TO.P,J1,2*
X149860000Y-72390000D03*
G04 #@! TO.P,J1,3*
X149860000Y-74930000D03*
G04 #@! TO.P,J1,4*
X149860000Y-77470000D03*
G04 #@! TO.P,J1,5*
X149860000Y-80010000D03*
G04 #@! TD*
D10*
G04 #@! TO.P,J1,1*
G04 #@! TO.N,Net-(J1-Pad1)*
X147320000Y-69850000D03*
D11*
G04 #@! TO.P,J1,2*
X147320000Y-72390000D03*
G04 #@! TO.P,J1,3*
X147320000Y-74930000D03*
G04 #@! TO.P,J1,4*
X147320000Y-77470000D03*
G04 #@! TO.P,J1,5*
X147320000Y-80010000D03*
G04 #@! TD*
D10*
G04 #@! TO.P,J1,1*
G04 #@! TO.N,Net-(J1-Pad1)*
X144780000Y-69850000D03*
D11*
G04 #@! TO.P,J1,2*
X144780000Y-72390000D03*
G04 #@! TO.P,J1,3*
X144780000Y-74930000D03*
G04 #@! TO.P,J1,4*
X144780000Y-77470000D03*
G04 #@! TO.P,J1,5*
X144780000Y-80010000D03*
G04 #@! TD*
D10*
G04 #@! TO.P,J1,1*
G04 #@! TO.N,Net-(J1-Pad1)*
X142240000Y-69850000D03*
D11*
G04 #@! TO.P,J1,2*
X142240000Y-72390000D03*
G04 #@! TO.P,J1,3*
X142240000Y-74930000D03*
G04 #@! TO.P,J1,4*
X142240000Y-77470000D03*
G04 #@! TO.P,J1,5*
X142240000Y-80010000D03*
G04 #@! TD*
D10*
G04 #@! TO.P,J1,1*
G04 #@! TO.N,Net-(J1-Pad1)*
X139700000Y-69850000D03*
D11*
G04 #@! TO.P,J1,2*
X139700000Y-72390000D03*
G04 #@! TO.P,J1,3*
X139700000Y-74930000D03*
G04 #@! TO.P,J1,4*
X139700000Y-77470000D03*
G04 #@! TO.P,J1,5*
X139700000Y-80010000D03*
G04 #@! TD*
D10*
G04 #@! TO.P,J1,1*
G04 #@! TO.N,Net-(J1-Pad1)*
X137160000Y-69850000D03*
D11*
G04 #@! TO.P,J1,2*
X137160000Y-72390000D03*
G04 #@! TO.P,J1,3*
X137160000Y-74930000D03*
G04 #@! TO.P,J1,4*
X137160000Y-77470000D03*
G04 #@! TO.P,J1,5*
X137160000Y-80010000D03*
G04 #@! TD*
D10*
G04 #@! TO.P,J1,1*
G04 #@! TO.N,Net-(J1-Pad1)*
X134620000Y-69850000D03*
D11*
G04 #@! TO.P,J1,2*
X134620000Y-72390000D03*
G04 #@! TO.P,J1,3*
X134620000Y-74930000D03*
G04 #@! TO.P,J1,4*
X134620000Y-77470000D03*
G04 #@! TO.P,J1,5*
X134620000Y-80010000D03*
G04 #@! TD*
D10*
G04 #@! TO.P,J1,1*
G04 #@! TO.N,Net-(J1-Pad1)*
X132080000Y-69850000D03*
D11*
G04 #@! TO.P,J1,2*
X132080000Y-72390000D03*
G04 #@! TO.P,J1,3*
X132080000Y-74930000D03*
G04 #@! TO.P,J1,4*
X132080000Y-77470000D03*
G04 #@! TO.P,J1,5*
X132080000Y-80010000D03*
G04 #@! TD*
D10*
G04 #@! TO.P,J1,1*
G04 #@! TO.N,Net-(J1-Pad1)*
X129540000Y-69850000D03*
D11*
G04 #@! TO.P,J1,2*
X129540000Y-72390000D03*
G04 #@! TO.P,J1,3*
X129540000Y-74930000D03*
G04 #@! TO.P,J1,4*
X129540000Y-77470000D03*
G04 #@! TO.P,J1,5*
X129540000Y-80010000D03*
G04 #@! TD*
D10*
G04 #@! TO.P,J1,1*
G04 #@! TO.N,Net-(J1-Pad1)*
X127000000Y-69850000D03*
D11*
G04 #@! TO.P,J1,2*
X127000000Y-72390000D03*
G04 #@! TO.P,J1,3*
X127000000Y-74930000D03*
G04 #@! TO.P,J1,4*
X127000000Y-77470000D03*
G04 #@! TO.P,J1,5*
X127000000Y-80010000D03*
G04 #@! TD*
D10*
G04 #@! TO.P,J1,1*
G04 #@! TO.N,Net-(J1-Pad1)*
X124460000Y-69850000D03*
D11*
G04 #@! TO.P,J1,2*
X124460000Y-72390000D03*
G04 #@! TO.P,J1,3*
X124460000Y-74930000D03*
G04 #@! TO.P,J1,4*
X124460000Y-77470000D03*
G04 #@! TO.P,J1,5*
X124460000Y-80010000D03*
G04 #@! TD*
D10*
G04 #@! TO.P,J1,1*
G04 #@! TO.N,Net-(J1-Pad1)*
X121920000Y-69850000D03*
D11*
G04 #@! TO.P,J1,2*
X121920000Y-72390000D03*
G04 #@! TO.P,J1,3*
X121920000Y-74930000D03*
G04 #@! TO.P,J1,4*
X121920000Y-77470000D03*
G04 #@! TO.P,J1,5*
X121920000Y-80010000D03*
G04 #@! TD*
D10*
G04 #@! TO.P,J1,1*
G04 #@! TO.N,Net-(J1-Pad1)*
X119380000Y-69850000D03*
D11*
G04 #@! TO.P,J1,2*
X119380000Y-72390000D03*
G04 #@! TO.P,J1,3*
X119380000Y-74930000D03*
G04 #@! TO.P,J1,4*
X119380000Y-77470000D03*
G04 #@! TO.P,J1,5*
X119380000Y-80010000D03*
G04 #@! TD*
D10*
G04 #@! TO.P,J1,1*
G04 #@! TO.N,Net-(J1-Pad1)*
X116840000Y-69850000D03*
D11*
G04 #@! TO.P,J1,2*
X116840000Y-72390000D03*
G04 #@! TO.P,J1,3*
X116840000Y-74930000D03*
G04 #@! TO.P,J1,4*
X116840000Y-77470000D03*
G04 #@! TO.P,J1,5*
X116840000Y-80010000D03*
G04 #@! TD*
D10*
G04 #@! TO.P,J1,1*
G04 #@! TO.N,Net-(J1-Pad1)*
X114300000Y-69850000D03*
D11*
G04 #@! TO.P,J1,2*
X114300000Y-72390000D03*
G04 #@! TO.P,J1,3*
X114300000Y-74930000D03*
G04 #@! TO.P,J1,4*
X114300000Y-77470000D03*
G04 #@! TO.P,J1,5*
X114300000Y-80010000D03*
G04 #@! TD*
D10*
G04 #@! TO.P,J1,1*
G04 #@! TO.N,Net-(J1-Pad1)*
X111760000Y-69850000D03*
D11*
G04 #@! TO.P,J1,2*
X111760000Y-72390000D03*
G04 #@! TO.P,J1,3*
X111760000Y-74930000D03*
G04 #@! TO.P,J1,4*
X111760000Y-77470000D03*
G04 #@! TO.P,J1,5*
X111760000Y-80010000D03*
G04 #@! TD*
D10*
G04 #@! TO.P,J1,1*
G04 #@! TO.N,Net-(J1-Pad1)*
X109220000Y-69850000D03*
D11*
G04 #@! TO.P,J1,2*
X109220000Y-72390000D03*
G04 #@! TO.P,J1,3*
X109220000Y-74930000D03*
G04 #@! TO.P,J1,4*
X109220000Y-77470000D03*
G04 #@! TO.P,J1,5*
X109220000Y-80010000D03*
G04 #@! TD*
D10*
G04 #@! TO.P,J1,1*
G04 #@! TO.N,Net-(J1-Pad1)*
X106680000Y-69850000D03*
D11*
G04 #@! TO.P,J1,2*
X106680000Y-72390000D03*
G04 #@! TO.P,J1,3*
X106680000Y-74930000D03*
G04 #@! TO.P,J1,4*
X106680000Y-77470000D03*
G04 #@! TO.P,J1,5*
X106680000Y-80010000D03*
G04 #@! TD*
D10*
G04 #@! TO.P,J1,1*
G04 #@! TO.N,Net-(J1-Pad1)*
X104140000Y-69850000D03*
D11*
G04 #@! TO.P,J1,2*
X104140000Y-72390000D03*
G04 #@! TO.P,J1,3*
X104140000Y-74930000D03*
G04 #@! TO.P,J1,4*
X104140000Y-77470000D03*
G04 #@! TO.P,J1,5*
X104140000Y-80010000D03*
G04 #@! TD*
D10*
G04 #@! TO.P,J1,1*
G04 #@! TO.N,Net-(J1-Pad1)*
X101600000Y-69850000D03*
D11*
G04 #@! TO.P,J1,2*
X101600000Y-72390000D03*
G04 #@! TO.P,J1,3*
X101600000Y-74930000D03*
G04 #@! TO.P,J1,4*
X101600000Y-77470000D03*
G04 #@! TO.P,J1,5*
X101600000Y-80010000D03*
G04 #@! TD*
D12*
G04 #@! TO.P,J3,1*
G04 #@! TO.N,Net-(J3-Pad1)*
X93980000Y-67310000D03*
G04 #@! TD*
G04 #@! TO.P,J3,1*
G04 #@! TO.N,Net-(J3-Pad1)*
X182880000Y-67310000D03*
G04 #@! TD*
G04 #@! TO.P,J3,1*
G04 #@! TO.N,Net-(J3-Pad1)*
X180340000Y-67310000D03*
G04 #@! TD*
G04 #@! TO.P,J3,1*
G04 #@! TO.N,Net-(J3-Pad1)*
X182880000Y-100330000D03*
G04 #@! TD*
G04 #@! TO.P,J3,1*
G04 #@! TO.N,Net-(J3-Pad1)*
X180340000Y-100330000D03*
G04 #@! TD*
G04 #@! TO.P,J3,1*
G04 #@! TO.N,Net-(J3-Pad1)*
X93980000Y-100330000D03*
G04 #@! TD*
G04 #@! TO.P,J3,1*
G04 #@! TO.N,Net-(J3-Pad1)*
X96520000Y-100330000D03*
G04 #@! TD*
G04 #@! TO.P,J3,1*
G04 #@! TO.N,Net-(J3-Pad1)*
X96520000Y-67310000D03*
G04 #@! TD*
G04 #@! TO.P,J3,1*
G04 #@! TO.N,Net-(J3-Pad1)*
X180340000Y-95250000D03*
G04 #@! TD*
D10*
G04 #@! TO.P,J3,1*
G04 #@! TO.N,Net-(J3-Pad1)*
X180340000Y-97790000D03*
G04 #@! TD*
G04 #@! TO.P,J3,1*
G04 #@! TO.N,Net-(J3-Pad1)*
X182880000Y-97790000D03*
G04 #@! TD*
D12*
G04 #@! TO.P,J3,1*
G04 #@! TO.N,Net-(J3-Pad1)*
X177800000Y-92710000D03*
G04 #@! TD*
G04 #@! TO.P,J3,1*
G04 #@! TO.N,Net-(J3-Pad1)*
X177800000Y-95250000D03*
G04 #@! TD*
G04 #@! TO.P,J3,1*
G04 #@! TO.N,Net-(J3-Pad1)*
X182880000Y-92710000D03*
G04 #@! TD*
G04 #@! TO.P,J3,1*
G04 #@! TO.N,Net-(J3-Pad1)*
X180340000Y-92710000D03*
G04 #@! TD*
G04 #@! TO.P,J3,1*
G04 #@! TO.N,Net-(J3-Pad1)*
X182880000Y-95250000D03*
G04 #@! TD*
D10*
G04 #@! TO.P,J3,1*
G04 #@! TO.N,Net-(J3-Pad1)*
X177800000Y-97790000D03*
G04 #@! TD*
G04 #@! TO.P,J3,1*
G04 #@! TO.N,Net-(J3-Pad1)*
X182880000Y-69850000D03*
G04 #@! TD*
G04 #@! TO.P,J3,1*
G04 #@! TO.N,Net-(J3-Pad1)*
X180340000Y-69850000D03*
G04 #@! TD*
D12*
G04 #@! TO.P,J3,1*
G04 #@! TO.N,Net-(J3-Pad1)*
X182880000Y-82550000D03*
G04 #@! TD*
G04 #@! TO.P,J3,1*
G04 #@! TO.N,Net-(J3-Pad1)*
X182880000Y-74930000D03*
G04 #@! TD*
G04 #@! TO.P,J3,1*
G04 #@! TO.N,Net-(J3-Pad1)*
X177800000Y-77470000D03*
G04 #@! TD*
G04 #@! TO.P,J3,1*
G04 #@! TO.N,Net-(J3-Pad1)*
X182880000Y-72390000D03*
G04 #@! TD*
G04 #@! TO.P,J3,1*
G04 #@! TO.N,Net-(J3-Pad1)*
X180340000Y-82550000D03*
G04 #@! TD*
G04 #@! TO.P,J3,1*
G04 #@! TO.N,Net-(J3-Pad1)*
X177800000Y-82550000D03*
G04 #@! TD*
G04 #@! TO.P,J3,1*
G04 #@! TO.N,Net-(J3-Pad1)*
X182880000Y-80010000D03*
G04 #@! TD*
G04 #@! TO.P,J3,1*
G04 #@! TO.N,Net-(J3-Pad1)*
X177800000Y-80010000D03*
G04 #@! TD*
G04 #@! TO.P,J3,1*
G04 #@! TO.N,Net-(J3-Pad1)*
X177800000Y-90170000D03*
G04 #@! TD*
G04 #@! TO.P,J3,1*
G04 #@! TO.N,Net-(J3-Pad1)*
X182880000Y-85090000D03*
G04 #@! TD*
G04 #@! TO.P,J3,1*
G04 #@! TO.N,Net-(J3-Pad1)*
X180340000Y-74930000D03*
G04 #@! TD*
G04 #@! TO.P,J3,1*
G04 #@! TO.N,Net-(J3-Pad1)*
X177800000Y-85090000D03*
G04 #@! TD*
G04 #@! TO.P,J3,1*
G04 #@! TO.N,Net-(J3-Pad1)*
X177800000Y-72390000D03*
G04 #@! TD*
G04 #@! TO.P,J3,1*
G04 #@! TO.N,Net-(J3-Pad1)*
X180340000Y-72390000D03*
G04 #@! TD*
G04 #@! TO.P,J3,1*
G04 #@! TO.N,Net-(J3-Pad1)*
X180340000Y-85090000D03*
G04 #@! TD*
G04 #@! TO.P,J3,1*
G04 #@! TO.N,Net-(J3-Pad1)*
X180340000Y-77470000D03*
G04 #@! TD*
G04 #@! TO.P,J3,1*
G04 #@! TO.N,Net-(J3-Pad1)*
X180340000Y-90170000D03*
G04 #@! TD*
G04 #@! TO.P,J3,1*
G04 #@! TO.N,Net-(J3-Pad1)*
X182880000Y-87630000D03*
G04 #@! TD*
G04 #@! TO.P,J3,1*
G04 #@! TO.N,Net-(J3-Pad1)*
X182880000Y-77470000D03*
G04 #@! TD*
D10*
G04 #@! TO.P,J3,1*
G04 #@! TO.N,Net-(J3-Pad1)*
X177800000Y-69850000D03*
G04 #@! TD*
D12*
G04 #@! TO.P,J3,1*
G04 #@! TO.N,Net-(J3-Pad1)*
X180340000Y-87630000D03*
G04 #@! TD*
G04 #@! TO.P,J3,1*
G04 #@! TO.N,Net-(J3-Pad1)*
X177800000Y-74930000D03*
G04 #@! TD*
G04 #@! TO.P,J3,1*
G04 #@! TO.N,Net-(J3-Pad1)*
X180340000Y-80010000D03*
G04 #@! TD*
G04 #@! TO.P,J3,1*
G04 #@! TO.N,Net-(J3-Pad1)*
X177800000Y-87630000D03*
G04 #@! TD*
G04 #@! TO.P,J3,1*
G04 #@! TO.N,Net-(J3-Pad1)*
X182880000Y-90170000D03*
G04 #@! TD*
D10*
G04 #@! TO.P,J3,1*
G04 #@! TO.N,Net-(J3-Pad1)*
X99060000Y-97790000D03*
G04 #@! TD*
G04 #@! TO.P,J3,1*
G04 #@! TO.N,Net-(J3-Pad1)*
X96520000Y-97790000D03*
G04 #@! TD*
G04 #@! TO.P,J3,1*
G04 #@! TO.N,Net-(J3-Pad1)*
X93980000Y-97790000D03*
G04 #@! TD*
D12*
G04 #@! TO.P,J3,1*
G04 #@! TO.N,Net-(J3-Pad1)*
X99060000Y-95250000D03*
G04 #@! TD*
G04 #@! TO.P,J3,1*
G04 #@! TO.N,Net-(J3-Pad1)*
X96520000Y-95250000D03*
G04 #@! TD*
G04 #@! TO.P,J3,1*
G04 #@! TO.N,Net-(J3-Pad1)*
X93980000Y-95250000D03*
G04 #@! TD*
G04 #@! TO.P,J3,1*
G04 #@! TO.N,Net-(J3-Pad1)*
X99060000Y-92710000D03*
G04 #@! TD*
G04 #@! TO.P,J3,1*
G04 #@! TO.N,Net-(J3-Pad1)*
X96520000Y-92710000D03*
G04 #@! TD*
G04 #@! TO.P,J3,1*
G04 #@! TO.N,Net-(J3-Pad1)*
X93980000Y-92710000D03*
G04 #@! TD*
G04 #@! TO.P,J3,1*
G04 #@! TO.N,Net-(J3-Pad1)*
X99060000Y-90170000D03*
G04 #@! TD*
G04 #@! TO.P,J3,1*
G04 #@! TO.N,Net-(J3-Pad1)*
X96520000Y-90170000D03*
G04 #@! TD*
G04 #@! TO.P,J3,1*
G04 #@! TO.N,Net-(J3-Pad1)*
X93980000Y-90170000D03*
G04 #@! TD*
G04 #@! TO.P,J3,1*
G04 #@! TO.N,Net-(J3-Pad1)*
X99060000Y-87630000D03*
G04 #@! TD*
G04 #@! TO.P,J3,1*
G04 #@! TO.N,Net-(J3-Pad1)*
X96520000Y-87630000D03*
G04 #@! TD*
G04 #@! TO.P,J3,1*
G04 #@! TO.N,Net-(J3-Pad1)*
X93980000Y-87630000D03*
G04 #@! TD*
G04 #@! TO.P,J3,1*
G04 #@! TO.N,Net-(J3-Pad1)*
X99060000Y-85090000D03*
G04 #@! TD*
G04 #@! TO.P,J3,1*
G04 #@! TO.N,Net-(J3-Pad1)*
X96520000Y-85090000D03*
G04 #@! TD*
G04 #@! TO.P,J3,1*
G04 #@! TO.N,Net-(J3-Pad1)*
X93980000Y-85090000D03*
G04 #@! TD*
G04 #@! TO.P,J3,1*
G04 #@! TO.N,Net-(J3-Pad1)*
X99060000Y-82550000D03*
G04 #@! TD*
G04 #@! TO.P,J3,1*
G04 #@! TO.N,Net-(J3-Pad1)*
X96520000Y-82550000D03*
G04 #@! TD*
G04 #@! TO.P,J3,1*
G04 #@! TO.N,Net-(J3-Pad1)*
X93980000Y-82550000D03*
G04 #@! TD*
G04 #@! TO.P,J3,1*
G04 #@! TO.N,Net-(J3-Pad1)*
X99060000Y-80010000D03*
G04 #@! TD*
G04 #@! TO.P,J3,1*
G04 #@! TO.N,Net-(J3-Pad1)*
X96520000Y-80010000D03*
G04 #@! TD*
G04 #@! TO.P,J3,1*
G04 #@! TO.N,Net-(J3-Pad1)*
X93980000Y-80010000D03*
G04 #@! TD*
G04 #@! TO.P,J3,1*
G04 #@! TO.N,Net-(J3-Pad1)*
X99060000Y-77470000D03*
G04 #@! TD*
G04 #@! TO.P,J3,1*
G04 #@! TO.N,Net-(J3-Pad1)*
X96520000Y-77470000D03*
G04 #@! TD*
G04 #@! TO.P,J3,1*
G04 #@! TO.N,Net-(J3-Pad1)*
X93980000Y-77470000D03*
G04 #@! TD*
G04 #@! TO.P,J3,1*
G04 #@! TO.N,Net-(J3-Pad1)*
X99060000Y-74930000D03*
G04 #@! TD*
G04 #@! TO.P,J3,1*
G04 #@! TO.N,Net-(J3-Pad1)*
X96520000Y-74930000D03*
G04 #@! TD*
G04 #@! TO.P,J3,1*
G04 #@! TO.N,Net-(J3-Pad1)*
X93980000Y-74930000D03*
G04 #@! TD*
G04 #@! TO.P,J3,1*
G04 #@! TO.N,Net-(J3-Pad1)*
X99060000Y-72390000D03*
G04 #@! TD*
G04 #@! TO.P,J3,1*
G04 #@! TO.N,Net-(J3-Pad1)*
X96520000Y-72390000D03*
G04 #@! TD*
G04 #@! TO.P,J3,1*
G04 #@! TO.N,Net-(J3-Pad1)*
X93980000Y-72390000D03*
G04 #@! TD*
D10*
G04 #@! TO.P,J3,1*
G04 #@! TO.N,Net-(J3-Pad1)*
X99060000Y-69850000D03*
G04 #@! TD*
G04 #@! TO.P,J3,1*
G04 #@! TO.N,Net-(J3-Pad1)*
X96520000Y-69850000D03*
G04 #@! TD*
G04 #@! TO.P,J3,1*
G04 #@! TO.N,Net-(J3-Pad1)*
X93980000Y-69850000D03*
G04 #@! TD*
M02*
