M48
;DRILL file {KiCad 5.0.2+dfsg1-1~bpo9+1} date Mo 14 Nov 2022 20:46:39 CET
;FORMAT={-:-/ absolute / metric / decimal}
FMAT,2
METRIC,TZ
T1C1.000
%
G90
G05
T1
X162.56Y-87.63
X162.56Y-90.17
X162.56Y-92.71
X162.56Y-95.25
X162.56Y-97.79
X96.52Y-97.79
X101.6Y-87.63
X101.6Y-90.17
X101.6Y-92.71
X101.6Y-95.25
X101.6Y-97.79
X182.88Y-82.55
X93.98Y-82.55
X99.06Y-74.93
X93.98Y-85.09
X180.34Y-82.55
X127.Y-69.85
X127.Y-72.39
X127.Y-74.93
X127.Y-77.47
X127.Y-80.01
X149.86Y-69.85
X149.86Y-72.39
X149.86Y-74.93
X149.86Y-77.47
X149.86Y-80.01
X182.88Y-95.25
X93.98Y-80.01
X121.92Y-69.85
X121.92Y-72.39
X121.92Y-74.93
X121.92Y-77.47
X121.92Y-80.01
X101.6Y-69.85
X101.6Y-72.39
X101.6Y-74.93
X101.6Y-77.47
X101.6Y-80.01
X149.86Y-87.63
X149.86Y-90.17
X149.86Y-92.71
X149.86Y-95.25
X149.86Y-97.79
X142.24Y-69.85
X142.24Y-72.39
X142.24Y-74.93
X142.24Y-77.47
X142.24Y-80.01
X144.78Y-69.85
X144.78Y-72.39
X144.78Y-74.93
X144.78Y-77.47
X144.78Y-80.01
X96.52Y-67.31
X180.34Y-90.17
X106.68Y-87.63
X106.68Y-90.17
X106.68Y-92.71
X106.68Y-95.25
X106.68Y-97.79
X106.68Y-105.41
X109.22Y-105.41
X111.76Y-105.41
X114.3Y-105.41
X116.84Y-105.41
X119.38Y-105.41
X121.92Y-105.41
X124.46Y-105.41
X127.Y-105.41
X129.54Y-105.41
X132.08Y-105.41
X134.62Y-105.41
X137.16Y-105.41
X139.7Y-105.41
X142.24Y-105.41
X144.78Y-105.41
X147.32Y-105.41
X149.86Y-105.41
X152.4Y-105.41
X154.94Y-105.41
X157.48Y-105.41
X160.02Y-105.41
X162.56Y-105.41
X165.1Y-105.41
X167.64Y-105.41
X170.18Y-105.41
X96.52Y-95.25
X180.34Y-72.39
X93.98Y-87.63
X93.98Y-97.79
X180.34Y-100.33
X109.22Y-87.63
X109.22Y-90.17
X109.22Y-92.71
X109.22Y-95.25
X109.22Y-97.79
X165.1Y-69.85
X165.1Y-72.39
X165.1Y-74.93
X165.1Y-77.47
X165.1Y-80.01
X160.02Y-69.85
X160.02Y-72.39
X160.02Y-74.93
X160.02Y-77.47
X160.02Y-80.01
X147.32Y-69.85
X147.32Y-72.39
X147.32Y-74.93
X147.32Y-77.47
X147.32Y-80.01
X96.52Y-100.33
X177.8Y-69.85
X180.34Y-80.01
X154.94Y-69.85
X154.94Y-72.39
X154.94Y-74.93
X154.94Y-77.47
X154.94Y-80.01
X116.84Y-87.63
X116.84Y-90.17
X116.84Y-92.71
X116.84Y-95.25
X116.84Y-97.79
X99.06Y-92.71
X124.46Y-69.85
X124.46Y-72.39
X124.46Y-74.93
X124.46Y-77.47
X124.46Y-80.01
X177.8Y-77.47
X104.14Y-87.63
X104.14Y-90.17
X104.14Y-92.71
X104.14Y-95.25
X104.14Y-97.79
X127.Y-87.63
X127.Y-90.17
X127.Y-92.71
X127.Y-95.25
X127.Y-97.79
X96.52Y-77.47
X114.3Y-87.63
X114.3Y-90.17
X114.3Y-92.71
X114.3Y-95.25
X114.3Y-97.79
X139.7Y-69.85
X139.7Y-72.39
X139.7Y-74.93
X139.7Y-77.47
X139.7Y-80.01
X167.64Y-69.85
X167.64Y-72.39
X167.64Y-74.93
X167.64Y-77.47
X167.64Y-80.01
X99.06Y-72.39
X182.88Y-69.85
X96.52Y-69.85
X180.34Y-67.31
X132.08Y-69.85
X132.08Y-72.39
X132.08Y-74.93
X132.08Y-77.47
X132.08Y-80.01
X180.34Y-87.63
X142.24Y-87.63
X142.24Y-90.17
X142.24Y-92.71
X142.24Y-95.25
X142.24Y-97.79
X93.98Y-77.47
X96.52Y-92.71
X106.68Y-62.23
X109.22Y-62.23
X111.76Y-62.23
X114.3Y-62.23
X116.84Y-62.23
X119.38Y-62.23
X121.92Y-62.23
X124.46Y-62.23
X127.Y-62.23
X129.54Y-62.23
X132.08Y-62.23
X134.62Y-62.23
X137.16Y-62.23
X139.7Y-62.23
X142.24Y-62.23
X144.78Y-62.23
X147.32Y-62.23
X149.86Y-62.23
X152.4Y-62.23
X154.94Y-62.23
X157.48Y-62.23
X160.02Y-62.23
X162.56Y-62.23
X165.1Y-62.23
X167.64Y-62.23
X170.18Y-62.23
X144.78Y-87.63
X144.78Y-90.17
X144.78Y-92.71
X144.78Y-95.25
X144.78Y-97.79
X106.68Y-64.77
X109.22Y-64.77
X111.76Y-64.77
X114.3Y-64.77
X116.84Y-64.77
X119.38Y-64.77
X121.92Y-64.77
X124.46Y-64.77
X127.Y-64.77
X129.54Y-64.77
X132.08Y-64.77
X134.62Y-64.77
X137.16Y-64.77
X139.7Y-64.77
X142.24Y-64.77
X144.78Y-64.77
X147.32Y-64.77
X149.86Y-64.77
X152.4Y-64.77
X154.94Y-64.77
X157.48Y-64.77
X160.02Y-64.77
X162.56Y-64.77
X165.1Y-64.77
X167.64Y-64.77
X170.18Y-64.77
X96.52Y-90.17
X124.46Y-87.63
X124.46Y-90.17
X124.46Y-92.71
X124.46Y-95.25
X124.46Y-97.79
X134.62Y-87.63
X134.62Y-90.17
X134.62Y-92.71
X134.62Y-95.25
X134.62Y-97.79
X129.54Y-87.63
X129.54Y-90.17
X129.54Y-92.71
X129.54Y-95.25
X129.54Y-97.79
X154.94Y-87.63
X154.94Y-90.17
X154.94Y-92.71
X154.94Y-95.25
X154.94Y-97.79
X182.88Y-80.01
X121.92Y-87.63
X121.92Y-90.17
X121.92Y-92.71
X121.92Y-95.25
X121.92Y-97.79
X96.52Y-72.39
X99.06Y-82.55
X99.06Y-77.47
X170.18Y-87.63
X170.18Y-90.17
X170.18Y-92.71
X170.18Y-95.25
X170.18Y-97.79
X99.06Y-80.01
X177.8Y-72.39
X177.8Y-92.71
X109.22Y-69.85
X109.22Y-72.39
X109.22Y-74.93
X109.22Y-77.47
X109.22Y-80.01
X160.02Y-87.63
X160.02Y-90.17
X160.02Y-92.71
X160.02Y-95.25
X160.02Y-97.79
X175.26Y-69.85
X175.26Y-72.39
X175.26Y-74.93
X175.26Y-77.47
X175.26Y-80.01
X182.88Y-97.79
X177.8Y-82.55
X157.48Y-69.85
X157.48Y-72.39
X157.48Y-74.93
X157.48Y-77.47
X157.48Y-80.01
X177.8Y-95.25
X106.68Y-102.87
X109.22Y-102.87
X111.76Y-102.87
X114.3Y-102.87
X116.84Y-102.87
X119.38Y-102.87
X121.92Y-102.87
X124.46Y-102.87
X127.Y-102.87
X129.54Y-102.87
X132.08Y-102.87
X134.62Y-102.87
X137.16Y-102.87
X139.7Y-102.87
X142.24Y-102.87
X144.78Y-102.87
X147.32Y-102.87
X149.86Y-102.87
X152.4Y-102.87
X154.94Y-102.87
X157.48Y-102.87
X160.02Y-102.87
X162.56Y-102.87
X165.1Y-102.87
X167.64Y-102.87
X170.18Y-102.87
X177.8Y-85.09
X116.84Y-69.85
X116.84Y-72.39
X116.84Y-74.93
X116.84Y-77.47
X116.84Y-80.01
X172.72Y-87.63
X172.72Y-90.17
X172.72Y-92.71
X172.72Y-95.25
X172.72Y-97.79
X152.4Y-87.63
X152.4Y-90.17
X152.4Y-92.71
X152.4Y-95.25
X152.4Y-97.79
X99.06Y-97.79
X93.98Y-72.39
X139.7Y-87.63
X139.7Y-90.17
X139.7Y-92.71
X139.7Y-95.25
X139.7Y-97.79
X119.38Y-69.85
X119.38Y-72.39
X119.38Y-74.93
X119.38Y-77.47
X119.38Y-80.01
X111.76Y-69.85
X111.76Y-72.39
X111.76Y-74.93
X111.76Y-77.47
X111.76Y-80.01
X96.52Y-82.55
X93.98Y-69.85
X177.8Y-80.01
X99.06Y-85.09
X119.38Y-87.63
X119.38Y-90.17
X119.38Y-92.71
X119.38Y-95.25
X119.38Y-97.79
X182.88Y-92.71
X165.1Y-87.63
X165.1Y-90.17
X165.1Y-92.71
X165.1Y-95.25
X165.1Y-97.79
X99.06Y-69.85
X106.68Y-69.85
X106.68Y-72.39
X106.68Y-74.93
X106.68Y-77.47
X106.68Y-80.01
X96.52Y-85.09
X182.88Y-85.09
X177.8Y-97.79
X180.34Y-69.85
X180.34Y-95.25
X172.72Y-69.85
X172.72Y-72.39
X172.72Y-74.93
X172.72Y-77.47
X172.72Y-80.01
X180.34Y-77.47
X93.98Y-74.93
X96.52Y-74.93
X182.88Y-77.47
X180.34Y-74.93
X137.16Y-69.85
X137.16Y-72.39
X137.16Y-74.93
X137.16Y-77.47
X137.16Y-80.01
X182.88Y-90.17
X152.4Y-69.85
X152.4Y-72.39
X152.4Y-74.93
X152.4Y-77.47
X152.4Y-80.01
X104.14Y-69.85
X104.14Y-72.39
X104.14Y-74.93
X104.14Y-77.47
X104.14Y-80.01
X99.06Y-95.25
X180.34Y-97.79
X129.54Y-69.85
X129.54Y-72.39
X129.54Y-74.93
X129.54Y-77.47
X129.54Y-80.01
X162.56Y-69.85
X162.56Y-72.39
X162.56Y-74.93
X162.56Y-77.47
X162.56Y-80.01
X99.06Y-87.63
X114.3Y-69.85
X114.3Y-72.39
X114.3Y-74.93
X114.3Y-77.47
X114.3Y-80.01
X93.98Y-100.33
X93.98Y-67.31
X175.26Y-87.63
X175.26Y-90.17
X175.26Y-92.71
X175.26Y-95.25
X175.26Y-97.79
X93.98Y-95.25
X157.48Y-87.63
X157.48Y-90.17
X157.48Y-92.71
X157.48Y-95.25
X157.48Y-97.79
X96.52Y-87.63
X96.52Y-80.01
X147.32Y-87.63
X147.32Y-90.17
X147.32Y-92.71
X147.32Y-95.25
X147.32Y-97.79
X182.88Y-74.93
X134.62Y-69.85
X134.62Y-72.39
X134.62Y-74.93
X134.62Y-77.47
X134.62Y-80.01
X177.8Y-74.93
X99.06Y-90.17
X182.88Y-87.63
X111.76Y-87.63
X111.76Y-90.17
X111.76Y-92.71
X111.76Y-95.25
X111.76Y-97.79
X182.88Y-67.31
X137.16Y-87.63
X137.16Y-90.17
X137.16Y-92.71
X137.16Y-95.25
X137.16Y-97.79
X180.34Y-85.09
X177.8Y-87.63
X180.34Y-92.71
X177.8Y-90.17
X93.98Y-92.71
X132.08Y-87.63
X132.08Y-90.17
X132.08Y-92.71
X132.08Y-95.25
X132.08Y-97.79
X182.88Y-100.33
X182.88Y-72.39
X167.64Y-87.63
X167.64Y-90.17
X167.64Y-92.71
X167.64Y-95.25
X167.64Y-97.79
X93.98Y-90.17
X170.18Y-69.85
X170.18Y-72.39
X170.18Y-74.93
X170.18Y-77.47
X170.18Y-80.01
T0
M30
